#!OML:ASF X:\für Bonn\!DataBase\2005_08_10_Bjorn_Final\c3d\bjorn.ASF
:FULLY-SPECIFIED
:DEGREES
845
root 0.156259 1.42856 19.8429 -274.365 -0.611243 -534.869
lowerback 3.09861 -0.349429 1.69302
upperback 4.24598 -0.591301 -0.500026
thorax 2.6055 -0.310715 -1.46083
lowerneck -18.9245 -3.22176 1.1919
upperneck 10.8243 -5.28665 3.30234
head 6.43637 -2.28325 0.291983
rclavicle 1.66979e-014 -1.39149e-015
rhumerus -59.095 49.2227 -108.567
rradius 106.413
rwrist -31.3439
rhand 6.04704 7.38421
rfingers 7.12502
rthumb 31.3681 -19.9464
lclavicle 1.66979e-014 -1.39149e-015
lhumerus -59.7081 -59.4417 107.311
lradius 107.103
lwrist 38.075
lhand 10.8427 -369.213
lfingers 7.12502
lthumb 35.9252 17.1216
rfemur -1.40841 -19.0109 7.99678
rtibia 25.5275
rfoot 5.13919 -5.57281
rtoes 16.7403
lfemur -4.53532 3.46563 -11.1454
ltibia 27.1974
lfoot 2.74146 8.12292
ltoes 13.421
846
root 0.156673 1.42869 19.8425 -274.373 -0.612037 -534.88
lowerback 3.10297 -0.339512 1.69497
upperback 4.24397 -0.577684 -0.510462
thorax 2.60139 -0.303699 -1.47272
lowerneck -18.856 -3.20512 1.21051
upperneck 10.7686 -5.26245 3.28867
head 6.40605 -2.27385 0.288942
rclavicle -7.15625e-015 4.67144e-015
rhumerus -59.0982 49.1882 -108.58
rradius 106.428
rwrist -31.3471
rhand 6.05717 7.36684
rfingers 7.12502
rthumb 31.3778 -19.9619
lclavicle -7.15625e-015 4.67144e-015
lhumerus -59.7168 -59.4702 107.314
lradius 107.098
lwrist 38.0836
lhand 10.809 -369.256
lfingers 7.12502
lthumb 35.8932 17.0867
rfemur -1.40221 -19.0621 7.98069
rtibia 25.5333
rfoot 5.17268 -5.54239
rtoes 16.837
lfemur -4.52428 3.47927 -11.143
ltibia 27.191
lfoot 2.78251 8.07732
ltoes 13.5294
847
root 0.15751 1.42895 19.8434 -274.363 -0.628441 -534.881
lowerback 3.08272 -0.345344 1.65605
upperback 4.24861 -0.586338 -0.506693
thorax 2.61747 -0.309005 -1.44717
lowerneck -18.8591 -3.17469 1.22663
upperneck 10.7559 -5.21652 3.24673
head 6.40019 -2.25384 0.278162
rclavicle -4.77083e-015 -2.73329e-015
rhumerus -59.0668 49.2043 -108.555
rradius 106.418
rwrist -31.3513
rhand 6.0795 7.36941
rfingers 7.12502
rthumb 31.3991 -19.9552
lclavicle -4.77083e-015 -2.73329e-015
lhumerus -59.6522 -59.4529 107.257
lradius 107.09
lwrist 38.1126
lhand 10.7886 -369.315
lfingers 7.12502
lthumb 35.8739 17.0327
rfemur -1.41562 -19.0528 7.9716
rtibia 25.539
rfoot 5.14651 -5.54178
rtoes 16.7215
lfemur -4.53053 3.49492 -11.1563
ltibia 27.1845
lfoot 2.81894 8.03486
ltoes 13.5921
848
root 0.158355 1.4295 19.8433 -274.362 -0.629277 -534.891
lowerback 3.08411 -0.348225 1.62492
upperback 4.23539 -0.589978 -0.490612
thorax 2.60319 -0.311831 -1.41303
lowerneck -18.773 -3.15391 1.21571
upperneck 10.7046 -5.17449 3.21545
head 6.36841 -2.23789 0.276393
rclavicle -4.77083e-015 6.65929e-015
rhumerus -59.1061 49.2187 -108.567
rradius 106.433
rwrist -31.3639
rhand 6.11529 7.32959
rfingers 7.12502
rthumb 31.4332 -19.9884
lclavicle -4.77083e-015 6.65929e-015
lhumerus -59.691 -59.416 107.299
lradius 107.103
lwrist 38.1244
lhand 10.8081 -369.323
lfingers 7.12502
lthumb 35.8924 17.0203
rfemur -1.4125 -19.0199 7.97922
rtibia 25.536
rfoot 5.11981 -5.55886
rtoes 16.797
lfemur -4.52652 3.42871 -11.1666
ltibia 27.1868
lfoot 2.78705 8.04594
ltoes 13.7769
849
root 0.158802 1.42965 19.8434 -274.352 -0.64655 -534.9
lowerback 3.05929 -0.347428 1.59257
upperback 4.24063 -0.589759 -0.486413
thorax 2.62277 -0.312482 -1.39085
lowerneck -18.7233 -3.1313 1.20737
upperneck 10.6407 -5.13345 3.19604
head 6.33882 -2.22131 0.277424
rclavicle -5.56597e-015 -6.95746e-016
rhumerus -59.1028 49.2322 -108.549
rradius 106.454
rwrist -31.3922
rhand 6.13767 7.32703
rfingers 7.12502
rthumb 31.4545 -19.9868
lclavicle -5.56597e-015 -6.95746e-016
lhumerus -59.6411 -59.4122 107.259
lradius 107.09
lwrist 38.1564
lhand 10.7886 -369.36
lfingers 7.12502
lthumb 35.8739 16.9869
rfemur -1.42647 -19.011 7.96658
rtibia 25.5364
rfoot 5.11969 -5.5603
rtoes 16.7365
lfemur -4.53218 3.43683 -11.185
ltibia 27.1818
lfoot 2.831 7.99158
ltoes 13.8521
850
root 0.15926 1.42994 19.8443 -274.351 -0.647386 -534.9
lowerback 3.06053 -0.345489 1.59084
upperback 4.23384 -0.586474 -0.498479
thorax 2.61505 -0.310605 -1.40224
lowerneck -18.6668 -3.11253 1.24922
upperneck 10.6063 -5.10908 3.15614
head 6.316 -2.21228 0.26189
rclavicle 7.95139e-016 -2.48481e-015
rhumerus -59.1033 49.1865 -108.56
rradius 106.469
rwrist -31.3829
rhand 6.16535 7.31346
rfingers 7.12502
rthumb 31.4809 -19.9952
lclavicle 7.95139e-016 -2.48481e-015
lhumerus -59.659 -59.4337 107.254
lradius 107.099
lwrist 38.184
lhand 10.779 -369.357
lfingers 7.12502
lthumb 35.8648 16.993
rfemur -1.42675 -18.9979 7.97025
rtibia 25.5371
rfoot 5.09887 -5.57695
rtoes 16.6754
lfemur -4.53253 3.47592 -11.1824
ltibia 27.1797
lfoot 2.91479 7.89369
ltoes 13.7739
851
root 0.159291 1.42992 19.845 -274.341 -0.663767 -534.899
lowerback 3.04264 -0.353073 1.56261
upperback 4.23496 -0.596978 -0.498917
thorax 2.62603 -0.31645 -1.38696
lowerneck -18.6601 -3.08045 1.26854
upperneck 10.5943 -5.06445 3.12825
head 6.30929 -2.19186 0.255017
rclavicle -1.19271e-014 4.96962e-015
rhumerus -59.0975 49.21 -108.552
rradius 106.473
rwrist -31.4364
rhand 6.20247 7.29136
rfingers 7.12502
rthumb 31.5162 -20.0104
lclavicle -1.19271e-014 4.96962e-015
lhumerus -59.6279 -59.3995 107.235
lradius 107.087
lwrist 38.188
lhand 10.7771 -369.369
lfingers 7.12502
lthumb 35.863 16.9807
rfemur -1.43481 -19.004 7.953
rtibia 25.5378
rfoot 5.1022 -5.57143
rtoes 16.6631
lfemur -4.5336 3.3887 -11.2166
ltibia 27.1761
lfoot 2.86937 7.92444
ltoes 14.041
852
root 0.159656 1.42999 19.8452 -274.334 -0.645604 -534.884
lowerback 3.02776 -0.359725 1.57091
upperback 4.23454 -0.605977 -0.488641
thorax 2.63367 -0.320709 -1.38111
lowerneck -18.6025 -3.06281 1.27733
upperneck 10.5467 -5.03225 3.09114
head 6.28288 -2.18007 0.24663
rclavicle -1.03368e-014 -4.07509e-015
rhumerus -59.0853 49.2111 -108.532
rradius 106.491
rwrist -31.4838
rhand 6.20118 7.2596
rfingers 7.12502
rthumb 31.515 -20.0424
lclavicle -1.03368e-014 -4.07509e-015
lhumerus -59.5948 -59.3976 107.213
lradius 107.08
lwrist 38.2177
lhand 10.7893 -369.395
lfingers 7.12502
lthumb 35.8746 16.952
rfemur -1.43747 -19.0622 7.96562
rtibia 25.5365
rfoot 5.13421 -5.54475
rtoes 16.6853
lfemur -4.54735 3.40835 -11.1905
ltibia 27.1774
lfoot 2.90915 7.84934
ltoes 14.0706
